<svg width="20" height="20" viewBox="0 0 20 20" fill="none" xmlns="http://www.w3.org/2000/svg">
<g id="open-email">
<path id="primary" d="M2.5 7.50009L9.54167 2.64176C9.67773 2.55215 9.83708 2.50439 10 2.50439C10.1629 2.50439 10.3223 2.55215 10.4583 2.64176L17.5 7.50009M2.5 7.50009L9.54167 12.1918C9.67773 12.2814 9.83708 12.3291 10 12.3291C10.1629 12.3291 10.3223 12.2814 10.4583 12.1918L17.5 7.50009M2.5 7.50009V16.6668C2.5 16.8878 2.5878 17.0997 2.74408 17.256C2.90036 17.4123 3.11232 17.5001 3.33333 17.5001H16.6667C16.8877 17.5001 17.0996 17.4123 17.2559 17.256C17.4122 17.0997 17.5 16.8878 17.5 16.6668V7.50009" stroke="black" stroke-width="2" stroke-linecap="round" stroke-linejoin="round"/>
</g>
</svg>
